<?xml version="1.0" standalone="no"?>
<!DOCTYPE svg PUBLIC "-//W3C//DTD SVG 20010904//EN"
 "http://www.w3.org/TR/2001/REC-SVG-20010904/DTD/svg10.dtd">
<svg version="1.0" xmlns="http://www.w3.org/2000/svg"
 width="300.000000pt" height="153.000000pt" viewBox="0 0 300.000000 153.000000"
 preserveAspectRatio="xMidYMid meet">

<g transform="translate(0.000000,153.000000) scale(0.100000,-0.100000)"
fill="#000000" stroke="none">
<path d="M265 1382 c-3 -3 -5 -254 -5 -559 l0 -553 150 0 150 0 0 220 0 220
130 0 130 0 0 -220 0 -220 145 0 145 0 0 440 0 440 50 0 50 0 2 -437 3 -438
153 -3 152 -3 0 441 0 440 243 3 242 2 -242 3 -243 2 0 85 0 85 276 0 c183 0
290 -4 316 -12 141 -42 217 -241 143 -376 -49 -91 -140 -140 -279 -151 l-79
-6 133 -165 c73 -91 137 -171 143 -177 7 -10 -18 -13 -120 -13 l-129 0 -142
171 -142 171 0 84 0 83 191 3 c187 3 191 4 210 27 10 13 19 31 18 40 0 11 -3
10 -9 -5 -20 -49 -42 -54 -237 -54 l-183 0 0 -90 0 -90 146 -175 145 -175 137
-1 137 0 59 -75 59 -74 199 0 198 0 0 555 0 555 -140 0 c-139 0 -140 0 -139
-22 1 -17 2 -19 6 -5 4 15 18 17 119 17 l114 0 0 -530 0 -530 -169 0 -168 0
-41 53 -41 52 94 3 95 3 -2 457 -3 457 -2 -452 -3 -453 -98 0 -97 0 -127 158
-127 157 60 12 c183 38 280 145 280 309 0 125 -56 221 -161 276 -44 22 -52 23
-362 26 l-318 3 0 -105 0 -106 -115 0 -115 0 0 108 0 109 -147 -1 -148 -1 -3
-312 -2 -313 -60 0 -60 0 0 85 0 85 -202 -2 -203 -3 198 -2 197 -3 0 -80 0
-80 -150 0 -150 0 0 -220 0 -221 -107 3 -108 3 0 530 0 530 55 6 c54 6 54 6
-17 6 -40 0 -75 -2 -78 -5z m945 -132 l0 -90 -55 0 -55 0 0 -440 0 -440 -135
0 -135 0 0 215 0 215 80 0 80 0 0 308 c0 170 3 312 7 315 3 4 53 7 110 7 l103
0 0 -90z m270 -520 l0 -421 -112 3 -113 3 -3 418 -2 417 115 0 115 0 0 -420z"/>
<path d="M424 1160 c0 -129 2 -182 3 -117 2 64 2 170 0 235 -1 64 -3 11 -3
-118z"/>
<path d="M2026 1130 c6 -8 16 -24 22 -35 6 -11 12 -15 12 -8 0 7 -10 22 -22
35 -13 13 -18 17 -12 8z"/>
<path d="M2062 1050 c0 -14 2 -19 5 -12 2 6 2 18 0 25 -3 6 -5 1 -5 -13z"/>
<path d="M160 155 c0 -37 4 -65 10 -65 6 0 10 14 10 30 0 27 3 30 30 30 27 0
30 -3 30 -30 0 -16 5 -30 10 -30 6 0 10 28 10 65 0 37 -4 65 -10 65 -5 0 -10
-11 -10 -25 0 -21 -5 -25 -30 -25 -25 0 -30 4 -30 25 0 14 -4 25 -10 25 -6 0
-10 -28 -10 -65z"/>
<path d="M580 201 c0 -14 -6 -17 -25 -14 -32 7 -51 -30 -36 -70 9 -23 16 -27
51 -27 l40 0 0 65 c0 51 -3 65 -15 65 -8 0 -15 -8 -15 -19z m0 -61 c0 -32 -26
-43 -36 -15 -9 21 3 45 21 45 10 0 15 -10 15 -30z"/>
<path d="M790 155 c0 -51 3 -65 15 -65 9 0 15 9 15 25 0 14 6 25 13 25 8 0 20
-11 27 -25 7 -14 22 -25 32 -25 18 0 18 1 -2 30 -12 17 -17 30 -11 30 16 0 24
40 11 55 -8 9 -30 15 -56 15 l-44 0 0 -65z m78 28 c-2 -10 -13 -19 -26 -21
-17 -3 -22 2 -22 17 0 16 6 21 26 21 19 0 25 -5 22 -17z"/>
<path d="M1520 155 c0 -37 4 -65 10 -65 6 0 10 11 10 24 0 35 10 56 26 56 10
0 14 -12 14 -40 0 -29 4 -40 15 -40 11 0 15 11 15 39 0 44 -19 66 -50 56 -16
-5 -20 -2 -20 14 0 12 -4 21 -10 21 -6 0 -10 -28 -10 -65z"/>
<path d="M1690 155 c0 -37 4 -65 10 -65 6 0 10 28 10 65 0 37 -4 65 -10 65 -6
0 -10 -28 -10 -65z"/>
<path d="M1963 205 c-5 -11 -8 -41 -5 -67 3 -39 8 -48 23 -48 10 0 19 5 19 10
0 6 -4 10 -10 10 -15 0 -12 57 3 63 8 4 9 8 1 14 -6 4 -13 15 -16 23 -4 12 -7
11 -15 -5z"/>
<path d="M2020 210 c0 -5 5 -10 10 -10 6 0 10 5 10 10 0 6 -4 10 -10 10 -5 0
-10 -4 -10 -10z"/>
<path d="M2470 167 c0 -59 12 -77 50 -77 38 0 50 18 50 77 0 69 -18 69 -22 1
-3 -49 -5 -53 -28 -53 -23 0 -25 4 -28 53 -4 68 -22 68 -22 -1z"/>
<path d="M2610 205 c-18 -22 -6 -42 35 -59 20 -9 34 -20 30 -26 -8 -13 -42
-13 -50 0 -9 15 -25 12 -25 -5 0 -16 36 -28 71 -23 18 2 25 10 27 31 3 23 -2
30 -32 42 -39 17 -48 35 -16 35 11 0 20 -4 20 -10 0 -5 7 -10 15 -10 18 0 19
12 3 28 -17 17 -63 15 -78 -3z"/>
<path d="M2741 158 c-21 -63 -20 -87 3 -55 16 21 62 23 70 2 6 -17 26 -21 26
-5 0 5 -9 34 -21 65 -29 77 -50 75 -78 -7z m49 23 c0 -5 3 -16 6 -25 4 -12 0
-16 -16 -16 -16 0 -20 4 -16 16 3 9 6 20 6 25 0 5 5 9 10 9 6 0 10 -4 10 -9z"/>
<path d="M2067 198 c-2 -7 -1 -33 2 -58 5 -37 10 -46 29 -48 12 -2 22 1 22 7
0 6 -4 11 -10 11 -15 0 -12 58 2 62 9 3 8 9 -4 21 -20 20 -34 22 -41 5z"/>
<path d="M2248 198 c-3 -7 -3 -34 0 -60 3 -39 8 -48 23 -48 10 0 19 5 19 10 0
6 -4 10 -10 10 -15 0 -12 58 2 62 9 3 8 9 -4 21 -20 20 -25 21 -30 5z"/>
<path d="M303 178 c-19 -25 -21 -46 -7 -67 17 -23 53 -28 72 -9 15 15 15 61 0
76 -16 16 -53 15 -65 0z m52 -28 c8 -24 -1 -40 -21 -40 -17 0 -28 24 -20 45 8
22 34 18 41 -5z"/>
<path d="M403 143 c2 -58 24 -70 29 -16 4 52 32 53 36 1 5 -56 24 -46 20 10
l-3 47 -42 2 -41 2 1 -46z"/>
<path d="M643 184 c-24 -10 -14 -26 12 -20 14 4 25 2 25 -3 0 -5 -12 -12 -26
-15 -19 -5 -25 -12 -22 -29 2 -18 10 -22 41 -24 l38 -1 -3 46 c-3 42 -6 47
-28 49 -14 1 -31 -1 -37 -3z m47 -54 c0 -13 -28 -25 -38 -16 -3 4 0 11 8 16
20 13 30 12 30 0z"/>
<path d="M932 178 c-17 -17 -15 -63 2 -78 17 -13 63 -10 57 5 -2 6 -12 9 -23
7 -10 -2 -18 2 -18 7 0 6 11 11 24 11 31 0 40 14 26 40 -12 22 -49 27 -68 8z
m48 -18 c0 -5 -9 -10 -21 -10 -11 0 -17 5 -14 10 3 6 13 10 21 10 8 0 14 -4
14 -10z"/>
<path d="M1031 176 c-9 -11 -8 -18 4 -30 9 -9 23 -16 31 -16 8 0 14 -5 14 -11
0 -7 -10 -9 -26 -5 -19 5 -25 3 -22 -6 3 -7 20 -13 39 -13 27 0 35 4 37 21 2
16 -4 24 -28 33 -35 12 -33 33 2 23 14 -3 19 -2 14 6 -10 16 -51 15 -65 -2z"/>
<path d="M1142 178 c-17 -17 -15 -63 2 -78 17 -14 63 -10 56 5 -3 5 -9 9 -14
7 -5 -2 -16 0 -25 4 -12 5 -6 9 18 13 40 7 49 22 26 45 -19 19 -46 21 -63 4z
m48 -18 c0 -5 -9 -10 -21 -10 -11 0 -17 5 -14 10 3 6 13 10 21 10 8 0 14 -4
14 -10z"/>
<path d="M1247 183 c-15 -14 -6 -23 18 -17 36 9 31 -9 -6 -23 -47 -18 -36 -47
19 -51 l42 -3 0 38 c0 22 -5 44 -12 51 -13 13 -50 16 -61 5z m43 -58 c0 -8 -7
-15 -15 -15 -16 0 -20 12 -8 23 11 12 23 8 23 -8z"/>
<path d="M1340 138 c0 -36 4 -48 15 -48 10 0 15 10 15 34 0 21 6 36 15 40 26
10 16 25 -15 24 -29 -1 -30 -3 -30 -50z"/>
<path d="M1420 171 c-22 -43 -5 -81 36 -81 12 0 28 7 35 16 12 15 10 16 -19
10 -31 -7 -32 -6 -32 24 0 30 1 31 32 24 29 -6 31 -5 19 10 -18 22 -58 20 -71
-3z"/>
<path d="M1740 138 c0 -56 17 -65 22 -11 2 27 8 39 21 41 14 3 17 -4 17 -37 0
-30 4 -41 15 -41 10 0 15 10 15 31 0 50 -16 69 -55 67 -35 -1 -35 -1 -35 -50z"/>
<path d="M1857 183 c-17 -16 -5 -42 23 -52 35 -12 40 -24 8 -19 -13 1 -24 -2
-25 -7 -2 -6 12 -10 30 -10 27 0 32 4 32 25 0 17 -7 26 -23 30 -31 7 -27 26 5
22 16 -3 23 0 19 7 -8 12 -59 15 -69 4z"/>
<path d="M2020 140 c0 -27 5 -50 10 -50 6 0 10 23 10 50 0 28 -4 50 -10 50 -5
0 -10 -22 -10 -50z"/>
<path d="M2130 156 c0 -56 8 -66 51 -66 l39 0 0 50 c0 28 -4 50 -10 50 -5 0
-10 -11 -10 -24 0 -35 -10 -56 -26 -56 -10 0 -14 12 -14 40 0 29 -4 40 -15 40
-10 0 -15 -10 -15 -34z"/>
<path d="M2315 166 c-12 -18 -13 -30 -5 -50 8 -23 15 -27 42 -24 18 2 32 8 30
13 -2 6 -14 9 -27 7 -14 -2 -25 1 -25 7 0 6 14 11 30 11 22 0 30 5 30 18 0 44
-50 56 -75 18z m50 -6 c3 -5 -3 -10 -15 -10 -12 0 -18 5 -15 10 3 6 10 10 15
10 5 0 12 -4 15 -10z"/>
</g>
</svg>
